<mxfile host="app.diagrams.net" modified="2022-01-12T15:57:08.948Z" agent="5.0 (Windows NT 10.0; Win64; x64) AppleWebKit/537.36 (KHTML, like Gecko) Chrome/96.0.4664.110 Safari/537.36" etag="ULru1YHFO0IaH-E8Jetk" version="16.2.4" type="github">
  <diagram name="Page-1" id="9f46799a-70d6-7492-0946-bef42562c5a5">
    <mxGraphModel dx="2280" dy="1188" grid="1" gridSize="10" guides="1" tooltips="1" connect="1" arrows="1" fold="1" page="1" pageScale="1" pageWidth="4681" pageHeight="3300" background="none" math="0" shadow="0">
      <root>
        <mxCell id="0" />
        <mxCell id="1" parent="0" />
        <mxCell id="ROtKHMUUy6U5Va7ukIF5-2" value="APP.JS" style="swimlane;html=1;fontStyle=1;align=center;verticalAlign=top;childLayout=stackLayout;horizontal=1;startSize=26;horizontalStack=0;resizeParent=1;resizeLast=0;collapsible=1;marginBottom=0;swimlaneFillColor=#ffffff;rounded=0;shadow=0;comic=0;labelBackgroundColor=none;strokeWidth=1;fillColor=none;fontFamily=Verdana;fontSize=18;" vertex="1" parent="1">
          <mxGeometry x="2210" y="339.9999999999998" width="160" height="147" as="geometry" />
        </mxCell>
        <mxCell id="ROtKHMUUy6U5Va7ukIF5-3" value="+ field: type" style="text;html=1;strokeColor=none;fillColor=none;align=left;verticalAlign=top;spacingLeft=4;spacingRight=4;whiteSpace=wrap;overflow=hidden;rotatable=0;points=[[0,0.5],[1,0.5]];portConstraint=eastwest;" vertex="1" parent="ROtKHMUUy6U5Va7ukIF5-2">
          <mxGeometry y="26" width="160" height="26" as="geometry" />
        </mxCell>
        <mxCell id="ROtKHMUUy6U5Va7ukIF5-4" value="+ field: type" style="text;html=1;strokeColor=none;fillColor=none;align=left;verticalAlign=top;spacingLeft=4;spacingRight=4;whiteSpace=wrap;overflow=hidden;rotatable=0;points=[[0,0.5],[1,0.5]];portConstraint=eastwest;" vertex="1" parent="ROtKHMUUy6U5Va7ukIF5-2">
          <mxGeometry y="52" width="160" height="26" as="geometry" />
        </mxCell>
        <mxCell id="ROtKHMUUy6U5Va7ukIF5-5" value="" style="line;html=1;strokeWidth=1;fillColor=none;align=left;verticalAlign=middle;spacingTop=-1;spacingLeft=3;spacingRight=3;rotatable=0;labelPosition=right;points=[];portConstraint=eastwest;" vertex="1" parent="ROtKHMUUy6U5Va7ukIF5-2">
          <mxGeometry y="78" width="160" height="8" as="geometry" />
        </mxCell>
        <mxCell id="ROtKHMUUy6U5Va7ukIF5-6" value="+ method(type): type" style="text;html=1;strokeColor=none;fillColor=none;align=left;verticalAlign=top;spacingLeft=4;spacingRight=4;whiteSpace=wrap;overflow=hidden;rotatable=0;points=[[0,0.5],[1,0.5]];portConstraint=eastwest;" vertex="1" parent="ROtKHMUUy6U5Va7ukIF5-2">
          <mxGeometry y="86" width="160" height="26" as="geometry" />
        </mxCell>
        <mxCell id="ROtKHMUUy6U5Va7ukIF5-7" value="+ method(type): type" style="text;html=1;strokeColor=none;fillColor=none;align=left;verticalAlign=top;spacingLeft=4;spacingRight=4;whiteSpace=wrap;overflow=hidden;rotatable=0;points=[[0,0.5],[1,0.5]];portConstraint=eastwest;" vertex="1" parent="ROtKHMUUy6U5Va7ukIF5-2">
          <mxGeometry y="112" width="160" height="26" as="geometry" />
        </mxCell>
        <mxCell id="ROtKHMUUy6U5Va7ukIF5-23" style="edgeStyle=orthogonalEdgeStyle;rounded=0;orthogonalLoop=1;jettySize=auto;html=1;exitX=0.25;exitY=1;exitDx=0;exitDy=0;entryX=0.25;entryY=0;entryDx=0;entryDy=0;shape=flexArrow;strokeWidth=4;" edge="1" parent="1" source="ROtKHMUUy6U5Va7ukIF5-8" target="ROtKHMUUy6U5Va7ukIF5-2">
          <mxGeometry relative="1" as="geometry" />
        </mxCell>
        <mxCell id="ROtKHMUUy6U5Va7ukIF5-8" value="&lt;font style=&quot;font-size: 18px&quot;&gt;INDEX.JS&lt;/font&gt;" style="swimlane;html=1;fontStyle=1;align=center;verticalAlign=top;childLayout=stackLayout;horizontal=1;startSize=26;horizontalStack=0;resizeParent=1;resizeLast=0;collapsible=1;marginBottom=0;swimlaneFillColor=#ffffff;rounded=0;shadow=0;comic=0;labelBackgroundColor=none;strokeWidth=1;fillColor=none;fontFamily=Verdana;fontSize=12" vertex="1" parent="1">
          <mxGeometry x="2210" y="70" width="160" height="110" as="geometry" />
        </mxCell>
        <mxCell id="ROtKHMUUy6U5Va7ukIF5-9" value="IMPORT index.css&lt;br&gt;IMPORT App" style="text;html=1;strokeColor=none;fillColor=none;align=left;verticalAlign=top;spacingLeft=4;spacingRight=4;whiteSpace=wrap;overflow=hidden;rotatable=0;points=[[0,0.5],[1,0.5]];portConstraint=eastwest;" vertex="1" parent="ROtKHMUUy6U5Va7ukIF5-8">
          <mxGeometry y="26" width="160" height="44" as="geometry" />
        </mxCell>
        <mxCell id="ROtKHMUUy6U5Va7ukIF5-11" value="" style="line;html=1;strokeWidth=1;fillColor=none;align=left;verticalAlign=middle;spacingTop=-1;spacingLeft=3;spacingRight=3;rotatable=0;labelPosition=right;points=[];portConstraint=eastwest;" vertex="1" parent="ROtKHMUUy6U5Va7ukIF5-8">
          <mxGeometry y="70" width="160" height="8" as="geometry" />
        </mxCell>
        <mxCell id="ROtKHMUUy6U5Va7ukIF5-12" value="ReactDom.render (&amp;lt;APP/&amp;gt;" style="text;html=1;strokeColor=none;fillColor=none;align=left;verticalAlign=top;spacingLeft=4;spacingRight=4;whiteSpace=wrap;overflow=hidden;rotatable=0;points=[[0,0.5],[1,0.5]];portConstraint=eastwest;" vertex="1" parent="ROtKHMUUy6U5Va7ukIF5-8">
          <mxGeometry y="78" width="160" height="22" as="geometry" />
        </mxCell>
        <mxCell id="ROtKHMUUy6U5Va7ukIF5-15" value="&lt;font style=&quot;font-size: 18px&quot;&gt;APP.CSS&lt;/font&gt;" style="swimlane;html=1;fontStyle=1;align=center;verticalAlign=top;childLayout=stackLayout;horizontal=1;startSize=26;horizontalStack=0;resizeParent=1;resizeLast=0;collapsible=1;marginBottom=0;swimlaneFillColor=#ffffff;rounded=0;shadow=0;comic=0;labelBackgroundColor=none;strokeWidth=1;fillColor=none;fontFamily=Verdana;fontSize=12" vertex="1" parent="1">
          <mxGeometry x="2410" y="339.9999999999998" width="160" height="147" as="geometry" />
        </mxCell>
        <mxCell id="ROtKHMUUy6U5Va7ukIF5-16" value="+ field: type" style="text;html=1;strokeColor=none;fillColor=none;align=left;verticalAlign=top;spacingLeft=4;spacingRight=4;whiteSpace=wrap;overflow=hidden;rotatable=0;points=[[0,0.5],[1,0.5]];portConstraint=eastwest;" vertex="1" parent="ROtKHMUUy6U5Va7ukIF5-15">
          <mxGeometry y="26" width="160" height="26" as="geometry" />
        </mxCell>
        <mxCell id="ROtKHMUUy6U5Va7ukIF5-17" value="+ field: type" style="text;html=1;strokeColor=none;fillColor=none;align=left;verticalAlign=top;spacingLeft=4;spacingRight=4;whiteSpace=wrap;overflow=hidden;rotatable=0;points=[[0,0.5],[1,0.5]];portConstraint=eastwest;" vertex="1" parent="ROtKHMUUy6U5Va7ukIF5-15">
          <mxGeometry y="52" width="160" height="26" as="geometry" />
        </mxCell>
        <mxCell id="ROtKHMUUy6U5Va7ukIF5-18" value="" style="line;html=1;strokeWidth=1;fillColor=none;align=left;verticalAlign=middle;spacingTop=-1;spacingLeft=3;spacingRight=3;rotatable=0;labelPosition=right;points=[];portConstraint=eastwest;" vertex="1" parent="ROtKHMUUy6U5Va7ukIF5-15">
          <mxGeometry y="78" width="160" height="8" as="geometry" />
        </mxCell>
        <mxCell id="ROtKHMUUy6U5Va7ukIF5-19" value="+ method(type): type" style="text;html=1;strokeColor=none;fillColor=none;align=left;verticalAlign=top;spacingLeft=4;spacingRight=4;whiteSpace=wrap;overflow=hidden;rotatable=0;points=[[0,0.5],[1,0.5]];portConstraint=eastwest;" vertex="1" parent="ROtKHMUUy6U5Va7ukIF5-15">
          <mxGeometry y="86" width="160" height="26" as="geometry" />
        </mxCell>
        <mxCell id="ROtKHMUUy6U5Va7ukIF5-20" value="+ method(type): type" style="text;html=1;strokeColor=none;fillColor=none;align=left;verticalAlign=top;spacingLeft=4;spacingRight=4;whiteSpace=wrap;overflow=hidden;rotatable=0;points=[[0,0.5],[1,0.5]];portConstraint=eastwest;" vertex="1" parent="ROtKHMUUy6U5Va7ukIF5-15">
          <mxGeometry y="112" width="160" height="26" as="geometry" />
        </mxCell>
        <mxCell id="ROtKHMUUy6U5Va7ukIF5-21" style="edgeStyle=orthogonalEdgeStyle;rounded=0;orthogonalLoop=1;jettySize=auto;html=1;exitX=1;exitY=0.5;exitDx=0;exitDy=0;entryX=0;entryY=0.5;entryDx=0;entryDy=0;" edge="1" parent="1" source="ROtKHMUUy6U5Va7ukIF5-3" target="ROtKHMUUy6U5Va7ukIF5-16">
          <mxGeometry relative="1" as="geometry" />
        </mxCell>
        <mxCell id="ROtKHMUUy6U5Va7ukIF5-26" value="&lt;font style=&quot;font-size: 18px&quot;&gt;INDEX.CSS&lt;/font&gt;" style="swimlane;html=1;fontStyle=1;align=center;verticalAlign=top;childLayout=stackLayout;horizontal=1;startSize=26;horizontalStack=0;resizeParent=1;resizeLast=0;collapsible=1;marginBottom=0;swimlaneFillColor=#ffffff;rounded=0;shadow=0;comic=0;labelBackgroundColor=none;strokeWidth=1;fillColor=none;fontFamily=Verdana;fontSize=12" vertex="1" parent="1">
          <mxGeometry x="2410" y="70" width="160" height="110" as="geometry" />
        </mxCell>
        <mxCell id="ROtKHMUUy6U5Va7ukIF5-27" value="IMPORT index.css&lt;br&gt;IMPORT App" style="text;html=1;strokeColor=none;fillColor=none;align=left;verticalAlign=top;spacingLeft=4;spacingRight=4;whiteSpace=wrap;overflow=hidden;rotatable=0;points=[[0,0.5],[1,0.5]];portConstraint=eastwest;" vertex="1" parent="ROtKHMUUy6U5Va7ukIF5-26">
          <mxGeometry y="26" width="160" height="44" as="geometry" />
        </mxCell>
        <mxCell id="ROtKHMUUy6U5Va7ukIF5-28" value="" style="line;html=1;strokeWidth=1;fillColor=none;align=left;verticalAlign=middle;spacingTop=-1;spacingLeft=3;spacingRight=3;rotatable=0;labelPosition=right;points=[];portConstraint=eastwest;" vertex="1" parent="ROtKHMUUy6U5Va7ukIF5-26">
          <mxGeometry y="70" width="160" height="8" as="geometry" />
        </mxCell>
        <mxCell id="ROtKHMUUy6U5Va7ukIF5-29" value="ReactDom.render (&amp;lt;APP/&amp;gt;" style="text;html=1;strokeColor=none;fillColor=none;align=left;verticalAlign=top;spacingLeft=4;spacingRight=4;whiteSpace=wrap;overflow=hidden;rotatable=0;points=[[0,0.5],[1,0.5]];portConstraint=eastwest;" vertex="1" parent="ROtKHMUUy6U5Va7ukIF5-26">
          <mxGeometry y="78" width="160" height="22" as="geometry" />
        </mxCell>
        <mxCell id="ROtKHMUUy6U5Va7ukIF5-30" style="edgeStyle=orthogonalEdgeStyle;rounded=0;orthogonalLoop=1;jettySize=auto;html=1;exitX=1;exitY=0.5;exitDx=0;exitDy=0;entryX=0;entryY=0.5;entryDx=0;entryDy=0;" edge="1" parent="1" source="ROtKHMUUy6U5Va7ukIF5-9" target="ROtKHMUUy6U5Va7ukIF5-27">
          <mxGeometry relative="1" as="geometry" />
        </mxCell>
        <mxCell id="ROtKHMUUy6U5Va7ukIF5-61" style="edgeStyle=orthogonalEdgeStyle;rounded=0;orthogonalLoop=1;jettySize=auto;html=1;exitX=0.5;exitY=1;exitDx=0;exitDy=0;entryX=0.5;entryY=0;entryDx=0;entryDy=0;fontSize=18;" edge="1" parent="1" source="ROtKHMUUy6U5Va7ukIF5-36" target="ROtKHMUUy6U5Va7ukIF5-52">
          <mxGeometry relative="1" as="geometry" />
        </mxCell>
        <mxCell id="ROtKHMUUy6U5Va7ukIF5-62" value="" style="edgeStyle=orthogonalEdgeStyle;rounded=0;orthogonalLoop=1;jettySize=auto;html=1;exitX=0.25;exitY=1;exitDx=0;exitDy=0;fontSize=18;" edge="1" parent="1" source="ROtKHMUUy6U5Va7ukIF5-36">
          <mxGeometry relative="1" as="geometry">
            <mxPoint x="2080" y="1350" as="targetPoint" />
          </mxGeometry>
        </mxCell>
        <mxCell id="ROtKHMUUy6U5Va7ukIF5-36" value="&lt;span style=&quot;font-size: 18px&quot;&gt;Profile&lt;/span&gt;" style="swimlane;html=1;fontStyle=1;align=center;verticalAlign=top;childLayout=stackLayout;horizontal=1;startSize=26;horizontalStack=0;resizeParent=1;resizeLast=0;collapsible=1;marginBottom=0;swimlaneFillColor=#ffffff;rounded=0;shadow=0;comic=0;labelBackgroundColor=none;strokeWidth=1;fillColor=none;fontFamily=Verdana;fontSize=12" vertex="1" parent="1">
          <mxGeometry x="2130" y="1190" width="160" height="110" as="geometry" />
        </mxCell>
        <mxCell id="ROtKHMUUy6U5Va7ukIF5-37" value="IMPORT index.css&lt;br&gt;IMPORT App" style="text;html=1;strokeColor=none;fillColor=none;align=left;verticalAlign=top;spacingLeft=4;spacingRight=4;whiteSpace=wrap;overflow=hidden;rotatable=0;points=[[0,0.5],[1,0.5]];portConstraint=eastwest;" vertex="1" parent="ROtKHMUUy6U5Va7ukIF5-36">
          <mxGeometry y="26" width="160" height="44" as="geometry" />
        </mxCell>
        <mxCell id="ROtKHMUUy6U5Va7ukIF5-38" value="" style="line;html=1;strokeWidth=1;fillColor=none;align=left;verticalAlign=middle;spacingTop=-1;spacingLeft=3;spacingRight=3;rotatable=0;labelPosition=right;points=[];portConstraint=eastwest;" vertex="1" parent="ROtKHMUUy6U5Va7ukIF5-36">
          <mxGeometry y="70" width="160" height="8" as="geometry" />
        </mxCell>
        <mxCell id="ROtKHMUUy6U5Va7ukIF5-39" value="ReactDom.render (&amp;lt;APP/&amp;gt;" style="text;html=1;strokeColor=none;fillColor=none;align=left;verticalAlign=top;spacingLeft=4;spacingRight=4;whiteSpace=wrap;overflow=hidden;rotatable=0;points=[[0,0.5],[1,0.5]];portConstraint=eastwest;" vertex="1" parent="ROtKHMUUy6U5Va7ukIF5-36">
          <mxGeometry y="78" width="160" height="22" as="geometry" />
        </mxCell>
        <mxCell id="ROtKHMUUy6U5Va7ukIF5-40" value="&lt;font style=&quot;font-size: 18px&quot;&gt;NavBar&lt;/font&gt;" style="swimlane;html=1;fontStyle=1;align=center;verticalAlign=top;childLayout=stackLayout;horizontal=1;startSize=26;horizontalStack=0;resizeParent=1;resizeLast=0;collapsible=1;marginBottom=0;swimlaneFillColor=#ffffff;rounded=0;shadow=0;comic=0;labelBackgroundColor=none;strokeWidth=1;fillColor=none;fontFamily=Verdana;fontSize=12" vertex="1" parent="1">
          <mxGeometry x="2570" y="1180" width="160" height="110" as="geometry" />
        </mxCell>
        <mxCell id="ROtKHMUUy6U5Va7ukIF5-41" value="IMPORT index.css&lt;br&gt;IMPORT App" style="text;html=1;strokeColor=none;fillColor=none;align=left;verticalAlign=top;spacingLeft=4;spacingRight=4;whiteSpace=wrap;overflow=hidden;rotatable=0;points=[[0,0.5],[1,0.5]];portConstraint=eastwest;" vertex="1" parent="ROtKHMUUy6U5Va7ukIF5-40">
          <mxGeometry y="26" width="160" height="44" as="geometry" />
        </mxCell>
        <mxCell id="ROtKHMUUy6U5Va7ukIF5-42" value="" style="line;html=1;strokeWidth=1;fillColor=none;align=left;verticalAlign=middle;spacingTop=-1;spacingLeft=3;spacingRight=3;rotatable=0;labelPosition=right;points=[];portConstraint=eastwest;" vertex="1" parent="ROtKHMUUy6U5Va7ukIF5-40">
          <mxGeometry y="70" width="160" height="8" as="geometry" />
        </mxCell>
        <mxCell id="ROtKHMUUy6U5Va7ukIF5-43" value="ReactDom.render (&amp;lt;APP/&amp;gt;" style="text;html=1;strokeColor=none;fillColor=none;align=left;verticalAlign=top;spacingLeft=4;spacingRight=4;whiteSpace=wrap;overflow=hidden;rotatable=0;points=[[0,0.5],[1,0.5]];portConstraint=eastwest;" vertex="1" parent="ROtKHMUUy6U5Va7ukIF5-40">
          <mxGeometry y="78" width="160" height="22" as="geometry" />
        </mxCell>
        <mxCell id="ROtKHMUUy6U5Va7ukIF5-44" value="&lt;font style=&quot;font-size: 18px&quot;&gt;Header&lt;/font&gt;" style="swimlane;html=1;fontStyle=1;align=center;verticalAlign=top;childLayout=stackLayout;horizontal=1;startSize=26;horizontalStack=0;resizeParent=1;resizeLast=0;collapsible=1;marginBottom=0;swimlaneFillColor=#ffffff;rounded=0;shadow=0;comic=0;labelBackgroundColor=none;strokeWidth=1;fillColor=none;fontFamily=Verdana;fontSize=12" vertex="1" parent="1">
          <mxGeometry x="2930" y="1180" width="160" height="110" as="geometry" />
        </mxCell>
        <mxCell id="ROtKHMUUy6U5Va7ukIF5-45" value="IMPORT index.css&lt;br&gt;IMPORT App" style="text;html=1;strokeColor=none;fillColor=none;align=left;verticalAlign=top;spacingLeft=4;spacingRight=4;whiteSpace=wrap;overflow=hidden;rotatable=0;points=[[0,0.5],[1,0.5]];portConstraint=eastwest;" vertex="1" parent="ROtKHMUUy6U5Va7ukIF5-44">
          <mxGeometry y="26" width="160" height="44" as="geometry" />
        </mxCell>
        <mxCell id="ROtKHMUUy6U5Va7ukIF5-46" value="" style="line;html=1;strokeWidth=1;fillColor=none;align=left;verticalAlign=middle;spacingTop=-1;spacingLeft=3;spacingRight=3;rotatable=0;labelPosition=right;points=[];portConstraint=eastwest;" vertex="1" parent="ROtKHMUUy6U5Va7ukIF5-44">
          <mxGeometry y="70" width="160" height="8" as="geometry" />
        </mxCell>
        <mxCell id="ROtKHMUUy6U5Va7ukIF5-47" value="ReactDom.render (&amp;lt;APP/&amp;gt;" style="text;html=1;strokeColor=none;fillColor=none;align=left;verticalAlign=top;spacingLeft=4;spacingRight=4;whiteSpace=wrap;overflow=hidden;rotatable=0;points=[[0,0.5],[1,0.5]];portConstraint=eastwest;" vertex="1" parent="ROtKHMUUy6U5Va7ukIF5-44">
          <mxGeometry y="78" width="160" height="22" as="geometry" />
        </mxCell>
        <mxCell id="ROtKHMUUy6U5Va7ukIF5-48" value="&lt;span style=&quot;font-size: 18px&quot;&gt;ProfileInfo&lt;/span&gt;" style="swimlane;html=1;fontStyle=1;align=center;verticalAlign=top;childLayout=stackLayout;horizontal=1;startSize=26;horizontalStack=0;resizeParent=1;resizeLast=0;collapsible=1;marginBottom=0;swimlaneFillColor=#ffffff;rounded=0;shadow=0;comic=0;labelBackgroundColor=none;strokeWidth=1;fillColor=none;fontFamily=Verdana;fontSize=12" vertex="1" parent="1">
          <mxGeometry x="1930" y="1350" width="160" height="110" as="geometry" />
        </mxCell>
        <mxCell id="ROtKHMUUy6U5Va7ukIF5-49" value="IMPORT index.css&lt;br&gt;IMPORT App" style="text;html=1;strokeColor=none;fillColor=none;align=left;verticalAlign=top;spacingLeft=4;spacingRight=4;whiteSpace=wrap;overflow=hidden;rotatable=0;points=[[0,0.5],[1,0.5]];portConstraint=eastwest;" vertex="1" parent="ROtKHMUUy6U5Va7ukIF5-48">
          <mxGeometry y="26" width="160" height="44" as="geometry" />
        </mxCell>
        <mxCell id="ROtKHMUUy6U5Va7ukIF5-50" value="" style="line;html=1;strokeWidth=1;fillColor=none;align=left;verticalAlign=middle;spacingTop=-1;spacingLeft=3;spacingRight=3;rotatable=0;labelPosition=right;points=[];portConstraint=eastwest;" vertex="1" parent="ROtKHMUUy6U5Va7ukIF5-48">
          <mxGeometry y="70" width="160" height="8" as="geometry" />
        </mxCell>
        <mxCell id="ROtKHMUUy6U5Va7ukIF5-51" value="ReactDom.render (&amp;lt;APP/&amp;gt;" style="text;html=1;strokeColor=none;fillColor=none;align=left;verticalAlign=top;spacingLeft=4;spacingRight=4;whiteSpace=wrap;overflow=hidden;rotatable=0;points=[[0,0.5],[1,0.5]];portConstraint=eastwest;" vertex="1" parent="ROtKHMUUy6U5Va7ukIF5-48">
          <mxGeometry y="78" width="160" height="22" as="geometry" />
        </mxCell>
        <mxCell id="ROtKHMUUy6U5Va7ukIF5-63" style="edgeStyle=orthogonalEdgeStyle;rounded=0;orthogonalLoop=1;jettySize=auto;html=1;exitX=0.25;exitY=1;exitDx=0;exitDy=0;entryX=0.397;entryY=0;entryDx=0;entryDy=0;entryPerimeter=0;fontSize=18;" edge="1" parent="1" source="ROtKHMUUy6U5Va7ukIF5-52" target="ROtKHMUUy6U5Va7ukIF5-56">
          <mxGeometry relative="1" as="geometry" />
        </mxCell>
        <mxCell id="ROtKHMUUy6U5Va7ukIF5-52" value="&lt;span style=&quot;font-size: 18px&quot;&gt;MyPosts&lt;/span&gt;" style="swimlane;html=1;fontStyle=1;align=center;verticalAlign=top;childLayout=stackLayout;horizontal=1;startSize=26;horizontalStack=0;resizeParent=1;resizeLast=0;collapsible=1;marginBottom=0;swimlaneFillColor=#ffffff;rounded=0;shadow=0;comic=0;labelBackgroundColor=none;strokeWidth=1;fillColor=none;fontFamily=Verdana;fontSize=12" vertex="1" parent="1">
          <mxGeometry x="2130" y="1350" width="160" height="110" as="geometry" />
        </mxCell>
        <mxCell id="ROtKHMUUy6U5Va7ukIF5-53" value="IMPORT index.css&lt;br&gt;IMPORT App" style="text;html=1;strokeColor=none;fillColor=none;align=left;verticalAlign=top;spacingLeft=4;spacingRight=4;whiteSpace=wrap;overflow=hidden;rotatable=0;points=[[0,0.5],[1,0.5]];portConstraint=eastwest;" vertex="1" parent="ROtKHMUUy6U5Va7ukIF5-52">
          <mxGeometry y="26" width="160" height="44" as="geometry" />
        </mxCell>
        <mxCell id="ROtKHMUUy6U5Va7ukIF5-54" value="" style="line;html=1;strokeWidth=1;fillColor=none;align=left;verticalAlign=middle;spacingTop=-1;spacingLeft=3;spacingRight=3;rotatable=0;labelPosition=right;points=[];portConstraint=eastwest;" vertex="1" parent="ROtKHMUUy6U5Va7ukIF5-52">
          <mxGeometry y="70" width="160" height="8" as="geometry" />
        </mxCell>
        <mxCell id="ROtKHMUUy6U5Va7ukIF5-55" value="ReactDom.render (&amp;lt;APP/&amp;gt;" style="text;html=1;strokeColor=none;fillColor=none;align=left;verticalAlign=top;spacingLeft=4;spacingRight=4;whiteSpace=wrap;overflow=hidden;rotatable=0;points=[[0,0.5],[1,0.5]];portConstraint=eastwest;" vertex="1" parent="ROtKHMUUy6U5Va7ukIF5-52">
          <mxGeometry y="78" width="160" height="22" as="geometry" />
        </mxCell>
        <mxCell id="ROtKHMUUy6U5Va7ukIF5-56" value="&lt;font style=&quot;font-size: 18px&quot;&gt;Post&lt;/font&gt;" style="swimlane;html=1;fontStyle=1;align=center;verticalAlign=top;childLayout=stackLayout;horizontal=1;startSize=26;horizontalStack=0;resizeParent=1;resizeLast=0;collapsible=1;marginBottom=0;swimlaneFillColor=#ffffff;rounded=0;shadow=0;comic=0;labelBackgroundColor=none;strokeWidth=1;fillColor=none;fontFamily=Verdana;fontSize=12" vertex="1" parent="1">
          <mxGeometry x="2130" y="1510" width="100" height="110" as="geometry" />
        </mxCell>
        <mxCell id="ROtKHMUUy6U5Va7ukIF5-57" value="IMPORT index.css&lt;br&gt;IMPORT App" style="text;html=1;strokeColor=none;fillColor=none;align=left;verticalAlign=top;spacingLeft=4;spacingRight=4;whiteSpace=wrap;overflow=hidden;rotatable=0;points=[[0,0.5],[1,0.5]];portConstraint=eastwest;" vertex="1" parent="ROtKHMUUy6U5Va7ukIF5-56">
          <mxGeometry y="26" width="100" height="44" as="geometry" />
        </mxCell>
        <mxCell id="ROtKHMUUy6U5Va7ukIF5-58" value="" style="line;html=1;strokeWidth=1;fillColor=none;align=left;verticalAlign=middle;spacingTop=-1;spacingLeft=3;spacingRight=3;rotatable=0;labelPosition=right;points=[];portConstraint=eastwest;" vertex="1" parent="ROtKHMUUy6U5Va7ukIF5-56">
          <mxGeometry y="70" width="100" height="8" as="geometry" />
        </mxCell>
        <mxCell id="ROtKHMUUy6U5Va7ukIF5-59" value="ReactDom.render (&amp;lt;APP/&amp;gt;" style="text;html=1;strokeColor=none;fillColor=none;align=left;verticalAlign=top;spacingLeft=4;spacingRight=4;whiteSpace=wrap;overflow=hidden;rotatable=0;points=[[0,0.5],[1,0.5]];portConstraint=eastwest;" vertex="1" parent="ROtKHMUUy6U5Va7ukIF5-56">
          <mxGeometry y="78" width="100" height="22" as="geometry" />
        </mxCell>
        <mxCell id="ROtKHMUUy6U5Va7ukIF5-100" style="edgeStyle=none;rounded=0;orthogonalLoop=1;jettySize=auto;html=1;exitX=0.25;exitY=1;exitDx=0;exitDy=0;entryX=0.75;entryY=0;entryDx=0;entryDy=0;fontSize=18;strokeWidth=4;" edge="1" parent="1" source="ROtKHMUUy6U5Va7ukIF5-74" target="ROtKHMUUy6U5Va7ukIF5-96">
          <mxGeometry relative="1" as="geometry" />
        </mxCell>
        <mxCell id="ROtKHMUUy6U5Va7ukIF5-101" style="edgeStyle=none;rounded=0;orthogonalLoop=1;jettySize=auto;html=1;exitX=0.75;exitY=1;exitDx=0;exitDy=0;entryX=0.25;entryY=0;entryDx=0;entryDy=0;fontSize=18;strokeWidth=4;" edge="1" parent="1" source="ROtKHMUUy6U5Va7ukIF5-74" target="ROtKHMUUy6U5Va7ukIF5-92">
          <mxGeometry relative="1" as="geometry" />
        </mxCell>
        <mxCell id="ROtKHMUUy6U5Va7ukIF5-74" value="&lt;span style=&quot;font-size: 18px&quot;&gt;Dialogs&lt;/span&gt;" style="swimlane;html=1;fontStyle=1;align=center;verticalAlign=top;childLayout=stackLayout;horizontal=1;startSize=26;horizontalStack=0;resizeParent=1;resizeLast=0;collapsible=1;marginBottom=0;swimlaneFillColor=#ffffff;rounded=0;shadow=0;comic=0;labelBackgroundColor=none;strokeWidth=1;fillColor=none;fontFamily=Verdana;fontSize=12" vertex="1" parent="1">
          <mxGeometry x="1530" y="820" width="160" height="110" as="geometry" />
        </mxCell>
        <mxCell id="ROtKHMUUy6U5Va7ukIF5-75" value="IMPORT index.css&lt;br&gt;IMPORT App" style="text;html=1;strokeColor=none;fillColor=none;align=left;verticalAlign=top;spacingLeft=4;spacingRight=4;whiteSpace=wrap;overflow=hidden;rotatable=0;points=[[0,0.5],[1,0.5]];portConstraint=eastwest;" vertex="1" parent="ROtKHMUUy6U5Va7ukIF5-74">
          <mxGeometry y="26" width="160" height="44" as="geometry" />
        </mxCell>
        <mxCell id="ROtKHMUUy6U5Va7ukIF5-76" value="" style="line;html=1;strokeWidth=1;fillColor=none;align=left;verticalAlign=middle;spacingTop=-1;spacingLeft=3;spacingRight=3;rotatable=0;labelPosition=right;points=[];portConstraint=eastwest;" vertex="1" parent="ROtKHMUUy6U5Va7ukIF5-74">
          <mxGeometry y="70" width="160" height="8" as="geometry" />
        </mxCell>
        <mxCell id="ROtKHMUUy6U5Va7ukIF5-77" value="ReactDom.render (&amp;lt;APP/&amp;gt;" style="text;html=1;strokeColor=none;fillColor=none;align=left;verticalAlign=top;spacingLeft=4;spacingRight=4;whiteSpace=wrap;overflow=hidden;rotatable=0;points=[[0,0.5],[1,0.5]];portConstraint=eastwest;" vertex="1" parent="ROtKHMUUy6U5Va7ukIF5-74">
          <mxGeometry y="78" width="160" height="22" as="geometry" />
        </mxCell>
        <mxCell id="ROtKHMUUy6U5Va7ukIF5-85" style="edgeStyle=none;rounded=0;orthogonalLoop=1;jettySize=auto;html=1;exitX=0.75;exitY=1;exitDx=0;exitDy=0;entryX=0.5;entryY=0;entryDx=0;entryDy=0;fontSize=18;strokeWidth=4;" edge="1" parent="1" source="ROtKHMUUy6U5Va7ukIF5-78" target="ROtKHMUUy6U5Va7ukIF5-44">
          <mxGeometry relative="1" as="geometry" />
        </mxCell>
        <mxCell id="ROtKHMUUy6U5Va7ukIF5-86" style="edgeStyle=none;rounded=0;orthogonalLoop=1;jettySize=auto;html=1;exitX=0.5;exitY=1;exitDx=0;exitDy=0;entryX=0.313;entryY=0;entryDx=0;entryDy=0;entryPerimeter=0;fontSize=18;strokeWidth=4;" edge="1" parent="1" source="ROtKHMUUy6U5Va7ukIF5-78" target="ROtKHMUUy6U5Va7ukIF5-40">
          <mxGeometry relative="1" as="geometry" />
        </mxCell>
        <mxCell id="ROtKHMUUy6U5Va7ukIF5-87" style="edgeStyle=none;rounded=0;orthogonalLoop=1;jettySize=auto;html=1;exitX=0.25;exitY=1;exitDx=0;exitDy=0;entryX=0.688;entryY=0.002;entryDx=0;entryDy=0;entryPerimeter=0;fontSize=18;strokeWidth=4;" edge="1" parent="1" source="ROtKHMUUy6U5Va7ukIF5-78" target="ROtKHMUUy6U5Va7ukIF5-36">
          <mxGeometry relative="1" as="geometry" />
        </mxCell>
        <mxCell id="ROtKHMUUy6U5Va7ukIF5-88" style="edgeStyle=none;rounded=0;orthogonalLoop=1;jettySize=auto;html=1;exitX=0;exitY=1;exitDx=0;exitDy=0;entryX=1;entryY=0;entryDx=0;entryDy=0;fontSize=18;strokeWidth=4;" edge="1" parent="1" source="ROtKHMUUy6U5Va7ukIF5-78" target="ROtKHMUUy6U5Va7ukIF5-74">
          <mxGeometry relative="1" as="geometry" />
        </mxCell>
        <mxCell id="ROtKHMUUy6U5Va7ukIF5-78" value="BrowserRouter" style="swimlane;html=1;fontStyle=1;align=center;verticalAlign=top;childLayout=stackLayout;horizontal=1;startSize=26;horizontalStack=0;resizeParent=1;resizeLast=0;collapsible=1;marginBottom=0;swimlaneFillColor=#ffffff;rounded=0;shadow=0;comic=0;labelBackgroundColor=none;strokeWidth=1;fillColor=none;fontFamily=Verdana;fontSize=18;" vertex="1" parent="1">
          <mxGeometry x="2020" y="550" width="880" height="93" as="geometry" />
        </mxCell>
        <mxCell id="ROtKHMUUy6U5Va7ukIF5-79" value="+ field: type" style="text;html=1;strokeColor=none;fillColor=none;align=left;verticalAlign=top;spacingLeft=4;spacingRight=4;whiteSpace=wrap;overflow=hidden;rotatable=0;points=[[0,0.5],[1,0.5]];portConstraint=eastwest;" vertex="1" parent="ROtKHMUUy6U5Va7ukIF5-78">
          <mxGeometry y="26" width="880" height="26" as="geometry" />
        </mxCell>
        <mxCell id="ROtKHMUUy6U5Va7ukIF5-81" value="" style="line;html=1;strokeWidth=1;fillColor=none;align=left;verticalAlign=middle;spacingTop=-1;spacingLeft=3;spacingRight=3;rotatable=0;labelPosition=right;points=[];portConstraint=eastwest;" vertex="1" parent="ROtKHMUUy6U5Va7ukIF5-78">
          <mxGeometry y="52" width="880" height="8" as="geometry" />
        </mxCell>
        <mxCell id="ROtKHMUUy6U5Va7ukIF5-82" value="+ method(type): type" style="text;html=1;strokeColor=none;fillColor=none;align=left;verticalAlign=top;spacingLeft=4;spacingRight=4;whiteSpace=wrap;overflow=hidden;rotatable=0;points=[[0,0.5],[1,0.5]];portConstraint=eastwest;" vertex="1" parent="ROtKHMUUy6U5Va7ukIF5-78">
          <mxGeometry y="60" width="880" height="26" as="geometry" />
        </mxCell>
        <mxCell id="ROtKHMUUy6U5Va7ukIF5-84" style="edgeStyle=none;rounded=0;orthogonalLoop=1;jettySize=auto;html=1;entryX=0.5;entryY=1;entryDx=0;entryDy=0;fontSize=18;strokeWidth=4;" edge="1" parent="1" source="ROtKHMUUy6U5Va7ukIF5-78" target="ROtKHMUUy6U5Va7ukIF5-78">
          <mxGeometry relative="1" as="geometry" />
        </mxCell>
        <mxCell id="ROtKHMUUy6U5Va7ukIF5-92" value="&lt;span style=&quot;font-size: 18px&quot;&gt;MessageItem&lt;/span&gt;" style="swimlane;html=1;fontStyle=1;align=center;verticalAlign=top;childLayout=stackLayout;horizontal=1;startSize=26;horizontalStack=0;resizeParent=1;resizeLast=0;collapsible=1;marginBottom=0;swimlaneFillColor=#ffffff;rounded=0;shadow=0;comic=0;labelBackgroundColor=none;strokeWidth=1;fillColor=none;fontFamily=Verdana;fontSize=12" vertex="1" parent="1">
          <mxGeometry x="1650" y="1020" width="160" height="110" as="geometry" />
        </mxCell>
        <mxCell id="ROtKHMUUy6U5Va7ukIF5-93" value="IMPORT index.css&lt;br&gt;IMPORT App" style="text;html=1;strokeColor=none;fillColor=none;align=left;verticalAlign=top;spacingLeft=4;spacingRight=4;whiteSpace=wrap;overflow=hidden;rotatable=0;points=[[0,0.5],[1,0.5]];portConstraint=eastwest;" vertex="1" parent="ROtKHMUUy6U5Va7ukIF5-92">
          <mxGeometry y="26" width="160" height="44" as="geometry" />
        </mxCell>
        <mxCell id="ROtKHMUUy6U5Va7ukIF5-94" value="" style="line;html=1;strokeWidth=1;fillColor=none;align=left;verticalAlign=middle;spacingTop=-1;spacingLeft=3;spacingRight=3;rotatable=0;labelPosition=right;points=[];portConstraint=eastwest;" vertex="1" parent="ROtKHMUUy6U5Va7ukIF5-92">
          <mxGeometry y="70" width="160" height="8" as="geometry" />
        </mxCell>
        <mxCell id="ROtKHMUUy6U5Va7ukIF5-95" value="ReactDom.render (&amp;lt;APP/&amp;gt;" style="text;html=1;strokeColor=none;fillColor=none;align=left;verticalAlign=top;spacingLeft=4;spacingRight=4;whiteSpace=wrap;overflow=hidden;rotatable=0;points=[[0,0.5],[1,0.5]];portConstraint=eastwest;" vertex="1" parent="ROtKHMUUy6U5Va7ukIF5-92">
          <mxGeometry y="78" width="160" height="22" as="geometry" />
        </mxCell>
        <mxCell id="ROtKHMUUy6U5Va7ukIF5-96" value="&lt;span style=&quot;font-size: 18px&quot;&gt;DialogItem&lt;/span&gt;" style="swimlane;html=1;fontStyle=1;align=center;verticalAlign=top;childLayout=stackLayout;horizontal=1;startSize=26;horizontalStack=0;resizeParent=1;resizeLast=0;collapsible=1;marginBottom=0;swimlaneFillColor=#ffffff;rounded=0;shadow=0;comic=0;labelBackgroundColor=none;strokeWidth=1;fillColor=none;fontFamily=Verdana;fontSize=12" vertex="1" parent="1">
          <mxGeometry x="1410" y="1020" width="160" height="110" as="geometry" />
        </mxCell>
        <mxCell id="ROtKHMUUy6U5Va7ukIF5-97" value="IMPORT index.css&lt;br&gt;IMPORT App" style="text;html=1;strokeColor=none;fillColor=none;align=left;verticalAlign=top;spacingLeft=4;spacingRight=4;whiteSpace=wrap;overflow=hidden;rotatable=0;points=[[0,0.5],[1,0.5]];portConstraint=eastwest;" vertex="1" parent="ROtKHMUUy6U5Va7ukIF5-96">
          <mxGeometry y="26" width="160" height="44" as="geometry" />
        </mxCell>
        <mxCell id="ROtKHMUUy6U5Va7ukIF5-98" value="" style="line;html=1;strokeWidth=1;fillColor=none;align=left;verticalAlign=middle;spacingTop=-1;spacingLeft=3;spacingRight=3;rotatable=0;labelPosition=right;points=[];portConstraint=eastwest;" vertex="1" parent="ROtKHMUUy6U5Va7ukIF5-96">
          <mxGeometry y="70" width="160" height="8" as="geometry" />
        </mxCell>
        <mxCell id="ROtKHMUUy6U5Va7ukIF5-99" value="ReactDom.render (&amp;lt;APP/&amp;gt;" style="text;html=1;strokeColor=none;fillColor=none;align=left;verticalAlign=top;spacingLeft=4;spacingRight=4;whiteSpace=wrap;overflow=hidden;rotatable=0;points=[[0,0.5],[1,0.5]];portConstraint=eastwest;" vertex="1" parent="ROtKHMUUy6U5Va7ukIF5-96">
          <mxGeometry y="78" width="160" height="22" as="geometry" />
        </mxCell>
      </root>
    </mxGraphModel>
  </diagram>
</mxfile>
